<?xml version="1.0" standalone="no"?><!DOCTYPE svg PUBLIC "-//W3C//DTD SVG 1.1//EN" "http://www.w3.org/Graphics/SVG/1.1/DTD/svg11.dtd"><svg class="icon" width="200px" height="200.00px" viewBox="0 0 1024 1024" version="1.1" xmlns="http://www.w3.org/2000/svg"><path d="M524 714.8c-171.1 0-310.2-139.2-310.2-310.2S353 94.4 524 94.4s310.2 139.2 310.2 310.2S695 714.8 524 714.8z m0-557.1c-136.1 0-246.9 110.7-246.9 246.9S387.9 651.4 524 651.4c136.1 0 246.8-110.7 246.8-246.9S660.1 157.7 524 157.7zM672.3 930.9c-17.5 0-31.7-14.2-31.7-31.7 0-64.3-52.3-116.7-116.6-116.7s-116.7 52.3-116.7 116.7c0 17.5-14.2 31.7-31.7 31.7s-31.7-14.2-31.7-31.7c0-99.3 80.8-180 180-180s180 80.8 180 180c0.1 17.5-14.1 31.7-31.6 31.7z" fill="#666666" /><path d="M524 567.5c-71.8 0-128-43.2-128-98.4 0-17.5 14.2-31.7 31.7-31.7s31.7 14.2 31.7 31.7c0 16.2 28.2 35.1 64.6 35.1 36.4 0 64.6-18.9 64.6-35.1 0-17.5 14.2-31.7 31.7-31.7s31.7 14.2 31.7 31.7c0 55.2-56.2 98.4-128 98.4z" fill="#666666" /></svg>